STARTFONT 2.1
FONT -Pixel Font Studio-Demo Pixel 0-Regular-R-Normal-Sans Serif-44-440-75-75-P-1760-ISO10646-1
SIZE 44 75 75
FONTBOUNDINGBOX 44 60 0 -16
STARTPROPERTIES 22
FOUNDRY "Pixel Font Studio"
FAMILY_NAME "Demo Pixel 0"
WEIGHT_NAME "Regular"
SLANT "R"
SETWIDTH_NAME "Normal"
ADD_STYLE_NAME "Sans Serif"
PIXEL_SIZE 44
POINT_SIZE 440
RESOLUTION_X 75
RESOLUTION_Y 75
SPACING "P"
AVERAGE_WIDTH 1760
CHARSET_REGISTRY "ISO10646"
CHARSET_ENCODING "1"
DEFAULT_CHAR 65534
FONT_ASCENT 44
FONT_DESCENT 16
X_HEIGHT 20
CAP_HEIGHT 28
FONT_VERSION "1.0.0"
COPYRIGHT "Copyright (c) TakWolf"
LICENSE "This Font Software is licensed under the SIL Open Font License, Version 1.1."
ENDPROPERTIES
CHARS 96
STARTCHAR uni0020
ENCODING 32
SWIDTH 4000 0
DWIDTH 176 0
BBX 44 60 0 -64
BITMAP
000000000000
000000000000
000000000000
000000000000
000000000000
000000000000
000000000000
000000000000
000000000000
000000000000
000000000000
000000000000
000000000000
000000000000
000000000000
000000000000
000000000000
000000000000
000000000000
000000000000
000000000000
000000000000
000000000000
000000000000
000000000000
000000000000
000000000000
000000000000
000000000000
000000000000
000000000000
000000000000
000000000000
000000000000
000000000000
000000000000
000000000000
000000000000
000000000000
000000000000
000000000000
000000000000
000000000000
000000000000
000000000000
000000000000
000000000000
000000000000
000000000000
000000000000
000000000000
000000000000
000000000000
000000000000
000000000000
000000000000
000000000000
000000000000
000000000000
000000000000
ENDCHAR
STARTCHAR uni0021
ENCODING 33
SWIDTH 4000 0
DWIDTH 176 0
BBX 44 60 0 -64
BITMAP
000000000000
000000000000
000000000000
000000000000
000000000000
000000000000
000000000000
000000000000
000000000000
000000000000
000000000000
000000000000
000000000000
000000000000
000000000000
000000000000
0F0000000000
0F0000000000
0F0000000000
0F0000000000
0F0000000000
0F0000000000
0F0000000000
0F0000000000
0F0000000000
0F0000000000
0F0000000000
0F0000000000
0F0000000000
0F0000000000
0F0000000000
0F0000000000
0F0000000000
0F0000000000
0F0000000000
0F0000000000
000000000000
000000000000
000000000000
000000000000
0F0000000000
0F0000000000
0F0000000000
0F0000000000
000000000000
000000000000
000000000000
000000000000
000000000000
000000000000
000000000000
000000000000
000000000000
000000000000
000000000000
000000000000
000000000000
000000000000
000000000000
000000000000
ENDCHAR
STARTCHAR uni0022
ENCODING 34
SWIDTH 4000 0
DWIDTH 176 0
BBX 44 60 0 -64
BITMAP
000000000000
000000000000
000000000000
000000000000
000000000000
000000000000
000000000000
000000000000
000000000000
000000000000
000000000000
000000000000
000000000000
000000000000
000000000000
000000000000
0F0F00000000
0F0F00000000
0F0F00000000
0F0F00000000
0F0F00000000
0F0F00000000
0F0F00000000
0F0F00000000
000000000000
000000000000
000000000000
000000000000
000000000000
000000000000
000000000000
000000000000
000000000000
000000000000
000000000000
000000000000
000000000000
000000000000
000000000000
000000000000
000000000000
000000000000
000000000000
000000000000
000000000000
000000000000
000000000000
000000000000
000000000000
000000000000
000000000000
000000000000
000000000000
000000000000
000000000000
000000000000
000000000000
000000000000
000000000000
000000000000
ENDCHAR
STARTCHAR uni0023
ENCODING 35
SWIDTH 4000 0
DWIDTH 176 0
BBX 44 60 0 -64
BITMAP
000000000000
000000000000
000000000000
000000000000
000000000000
000000000000
000000000000
000000000000
000000000000
000000000000
000000000000
000000000000
000000000000
000000000000
000000000000
000000000000
0F0F00000000
0F0F00000000
0F0F00000000
0F0F00000000
FFFFF0000000
FFFFF0000000
FFFFF0000000
FFFFF0000000
0F0F00000000
0F0F00000000
0F0F00000000
0F0F00000000
0F0F00000000
0F0F00000000
0F0F00000000
0F0F00000000
0F0F00000000
0F0F00000000
0F0F00000000
0F0F00000000
FFFFF0000000
FFFFF0000000
FFFFF0000000
FFFFF0000000
0F0F00000000
0F0F00000000
0F0F00000000
0F0F00000000
000000000000
000000000000
000000000000
000000000000
000000000000
000000000000
000000000000
000000000000
000000000000
000000000000
000000000000
000000000000
000000000000
000000000000
000000000000
000000000000
ENDCHAR
STARTCHAR uni0024
ENCODING 36
SWIDTH 4000 0
DWIDTH 176 0
BBX 44 60 0 -64
BITMAP
000000000000
000000000000
000000000000
000000000000
000000000000
000000000000
000000000000
000000000000
000000000000
000000000000
000000000000
000000000000
00F000000000
00F000000000
00F000000000
00F000000000
0FFF00000000
0FFF00000000
0FFF00000000
0FFF00000000
F0F0F0000000
F0F0F0000000
F0F0F0000000
F0F0F0000000
F0F000000000
F0F000000000
F0F000000000
F0F000000000
0FFF00000000
0FFF00000000
0FFF00000000
0FFF00000000
00F0F0000000
00F0F0000000
00F0F0000000
00F0F0000000
F0F0F0000000
F0F0F0000000
F0F0F0000000
F0F0F0000000
0FFF00000000
0FFF00000000
0FFF00000000
0FFF00000000
00F000000000
00F000000000
00F000000000
00F000000000
000000000000
000000000000
000000000000
000000000000
000000000000
000000000000
000000000000
000000000000
000000000000
000000000000
000000000000
000000000000
ENDCHAR
STARTCHAR uni0025
ENCODING 37
SWIDTH 4000 0
DWIDTH 176 0
BBX 44 60 0 -64
BITMAP
000000000000
000000000000
000000000000
000000000000
000000000000
000000000000
000000000000
000000000000
000000000000
000000000000
000000000000
000000000000
0F0000000000
0F0000000000
0F0000000000
0F0000000000
F0F0F0000000
F0F0F0000000
F0F0F0000000
F0F0F0000000
0F0F00000000
0F0F00000000
0F0F00000000
0F0F00000000
000F00000000
000F00000000
000F00000000
000F00000000
00F000000000
00F000000000
00F000000000
00F000000000
0F0000000000
0F0000000000
0F0000000000
0F0000000000
0F0F00000000
0F0F00000000
0F0F00000000
0F0F00000000
F0F0F0000000
F0F0F0000000
F0F0F0000000
F0F0F0000000
000F00000000
000F00000000
000F00000000
000F00000000
000000000000
000000000000
000000000000
000000000000
000000000000
000000000000
000000000000
000000000000
000000000000
000000000000
000000000000
000000000000
ENDCHAR
STARTCHAR uni0026
ENCODING 38
SWIDTH 4000 0
DWIDTH 176 0
BBX 44 60 0 -64
BITMAP
000000000000
000000000000
000000000000
000000000000
000000000000
000000000000
000000000000
000000000000
000000000000
000000000000
000000000000
000000000000
000000000000
000000000000
000000000000
000000000000
0FF000000000
0FF000000000
0FF000000000
0FF000000000
F00F00000000
F00F00000000
F00F00000000
F00F00000000
F00F00000000
F00F00000000
F00F00000000
F00F00000000
0FF000000000
0FF000000000
0FF000000000
0FF000000000
F0F0F0000000
F0F0F0000000
F0F0F0000000
F0F0F0000000
F00F00000000
F00F00000000
F00F00000000
F00F00000000
0FF0F0000000
0FF0F0000000
0FF0F0000000
0FF0F0000000
000000000000
000000000000
000000000000
000000000000
000000000000
000000000000
000000000000
000000000000
000000000000
000000000000
000000000000
000000000000
000000000000
000000000000
000000000000
000000000000
ENDCHAR
STARTCHAR uni0027
ENCODING 39
SWIDTH 4000 0
DWIDTH 176 0
BBX 44 60 0 -64
BITMAP
000000000000
000000000000
000000000000
000000000000
000000000000
000000000000
000000000000
000000000000
000000000000
000000000000
000000000000
000000000000
000000000000
000000000000
000000000000
000000000000
0F0000000000
0F0000000000
0F0000000000
0F0000000000
0F0000000000
0F0000000000
0F0000000000
0F0000000000
000000000000
000000000000
000000000000
000000000000
000000000000
000000000000
000000000000
000000000000
000000000000
000000000000
000000000000
000000000000
000000000000
000000000000
000000000000
000000000000
000000000000
000000000000
000000000000
000000000000
000000000000
000000000000
000000000000
000000000000
000000000000
000000000000
000000000000
000000000000
000000000000
000000000000
000000000000
000000000000
000000000000
000000000000
000000000000
000000000000
ENDCHAR
STARTCHAR uni0028
ENCODING 40
SWIDTH 4000 0
DWIDTH 176 0
BBX 44 60 0 -64
BITMAP
000000000000
000000000000
000000000000
000000000000
000000000000
000000000000
000000000000
000000000000
000000000000
000000000000
000000000000
000000000000
000000000000
000000000000
000000000000
000000000000
000F00000000
000F00000000
000F00000000
000F00000000
00F000000000
00F000000000
00F000000000
00F000000000
00F000000000
00F000000000
00F000000000
00F000000000
0F0000000000
0F0000000000
0F0000000000
0F0000000000
0F0000000000
0F0000000000
0F0000000000
0F0000000000
0F0000000000
0F0000000000
0F0000000000
0F0000000000
00F000000000
00F000000000
00F000000000
00F000000000
00F000000000
00F000000000
00F000000000
00F000000000
000F00000000
000F00000000
000F00000000
000F00000000
000000000000
000000000000
000000000000
000000000000
000000000000
000000000000
000000000000
000000000000
ENDCHAR
STARTCHAR uni0029
ENCODING 41
SWIDTH 4000 0
DWIDTH 176 0
BBX 44 60 0 -64
BITMAP
000000000000
000000000000
000000000000
000000000000
000000000000
000000000000
000000000000
000000000000
000000000000
000000000000
000000000000
000000000000
000000000000
000000000000
000000000000
000000000000
0F0000000000
0F0000000000
0F0000000000
0F0000000000
00F000000000
00F000000000
00F000000000
00F000000000
00F000000000
00F000000000
00F000000000
00F000000000
000F00000000
000F00000000
000F00000000
000F00000000
000F00000000
000F00000000
000F00000000
000F00000000
000F00000000
000F00000000
000F00000000
000F00000000
00F000000000
00F000000000
00F000000000
00F000000000
00F000000000
00F000000000
00F000000000
00F000000000
0F0000000000
0F0000000000
0F0000000000
0F0000000000
000000000000
000000000000
000000000000
000000000000
000000000000
000000000000
000000000000
000000000000
ENDCHAR
STARTCHAR uni002A
ENCODING 42
SWIDTH 4000 0
DWIDTH 176 0
BBX 44 60 0 -64
BITMAP
000000000000
000000000000
000000000000
000000000000
000000000000
000000000000
000000000000
000000000000
000000000000
000000000000
000000000000
000000000000
000000000000
000000000000
000000000000
000000000000
000000000000
000000000000
000000000000
000000000000
00F000000000
00F000000000
00F000000000
00F000000000
F0F0F0000000
F0F0F0000000
F0F0F0000000
F0F0F0000000
0FFF00000000
0FFF00000000
0FFF00000000
0FFF00000000
F0F0F0000000
F0F0F0000000
F0F0F0000000
F0F0F0000000
00F000000000
00F000000000
00F000000000
00F000000000
000000000000
000000000000
000000000000
000000000000
000000000000
000000000000
000000000000
000000000000
000000000000
000000000000
000000000000
000000000000
000000000000
000000000000
000000000000
000000000000
000000000000
000000000000
000000000000
000000000000
ENDCHAR
STARTCHAR uni002B
ENCODING 43
SWIDTH 4000 0
DWIDTH 176 0
BBX 44 60 0 -64
BITMAP
000000000000
000000000000
000000000000
000000000000
000000000000
000000000000
000000000000
000000000000
000000000000
000000000000
000000000000
000000000000
000000000000
000000000000
000000000000
000000000000
000000000000
000000000000
000000000000
000000000000
00F000000000
00F000000000
00F000000000
00F000000000
00F000000000
00F000000000
00F000000000
00F000000000
FFFFF0000000
FFFFF0000000
FFFFF0000000
FFFFF0000000
00F000000000
00F000000000
00F000000000
00F000000000
00F000000000
00F000000000
00F000000000
00F000000000
000000000000
000000000000
000000000000
000000000000
000000000000
000000000000
000000000000
000000000000
000000000000
000000000000
000000000000
000000000000
000000000000
000000000000
000000000000
000000000000
000000000000
000000000000
000000000000
000000000000
ENDCHAR
STARTCHAR uni002C
ENCODING 44
SWIDTH 4000 0
DWIDTH 176 0
BBX 44 60 0 -64
BITMAP
000000000000
000000000000
000000000000
000000000000
000000000000
000000000000
000000000000
000000000000
000000000000
000000000000
000000000000
000000000000
000000000000
000000000000
000000000000
000000000000
000000000000
000000000000
000000000000
000000000000
000000000000
000000000000
000000000000
000000000000
000000000000
000000000000
000000000000
000000000000
000000000000
000000000000
000000000000
000000000000
000000000000
000000000000
000000000000
000000000000
000000000000
000000000000
000000000000
000000000000
0F0000000000
0F0000000000
0F0000000000
0F0000000000
0F0000000000
0F0000000000
0F0000000000
0F0000000000
F00000000000
F00000000000
F00000000000
F00000000000
000000000000
000000000000
000000000000
000000000000
000000000000
000000000000
000000000000
000000000000
ENDCHAR
STARTCHAR uni002D
ENCODING 45
SWIDTH 4000 0
DWIDTH 176 0
BBX 44 60 0 -64
BITMAP
000000000000
000000000000
000000000000
000000000000
000000000000
000000000000
000000000000
000000000000
000000000000
000000000000
000000000000
000000000000
000000000000
000000000000
000000000000
000000000000
000000000000
000000000000
000000000000
000000000000
000000000000
000000000000
000000000000
000000000000
000000000000
000000000000
000000000000
000000000000
FFFFF0000000
FFFFF0000000
FFFFF0000000
FFFFF0000000
000000000000
000000000000
000000000000
000000000000
000000000000
000000000000
000000000000
000000000000
000000000000
000000000000
000000000000
000000000000
000000000000
000000000000
000000000000
000000000000
000000000000
000000000000
000000000000
000000000000
000000000000
000000000000
000000000000
000000000000
000000000000
000000000000
000000000000
000000000000
ENDCHAR
STARTCHAR uni002E
ENCODING 46
SWIDTH 4000 0
DWIDTH 176 0
BBX 44 60 0 -64
BITMAP
000000000000
000000000000
000000000000
000000000000
000000000000
000000000000
000000000000
000000000000
000000000000
000000000000
000000000000
000000000000
000000000000
000000000000
000000000000
000000000000
000000000000
000000000000
000000000000
000000000000
000000000000
000000000000
000000000000
000000000000
000000000000
000000000000
000000000000
000000000000
000000000000
000000000000
000000000000
000000000000
000000000000
000000000000
000000000000
000000000000
000000000000
000000000000
000000000000
000000000000
0F0000000000
0F0000000000
0F0000000000
0F0000000000
000000000000
000000000000
000000000000
000000000000
000000000000
000000000000
000000000000
000000000000
000000000000
000000000000
000000000000
000000000000
000000000000
000000000000
000000000000
000000000000
ENDCHAR
STARTCHAR uni002F
ENCODING 47
SWIDTH 4000 0
DWIDTH 176 0
BBX 44 60 0 -64
BITMAP
000000000000
000000000000
000000000000
000000000000
000000000000
000000000000
000000000000
000000000000
000000000000
000000000000
000000000000
000000000000
000000000000
000000000000
000000000000
000000000000
0000F0000000
0000F0000000
0000F0000000
0000F0000000
0000F0000000
0000F0000000
0000F0000000
0000F0000000
000F00000000
000F00000000
000F00000000
000F00000000
000F00000000
000F00000000
000F00000000
000F00000000
00F000000000
00F000000000
00F000000000
00F000000000
0F0000000000
0F0000000000
0F0000000000
0F0000000000
0F0000000000
0F0000000000
0F0000000000
0F0000000000
F00000000000
F00000000000
F00000000000
F00000000000
F00000000000
F00000000000
F00000000000
F00000000000
000000000000
000000000000
000000000000
000000000000
000000000000
000000000000
000000000000
000000000000
ENDCHAR
STARTCHAR uni0030
ENCODING 48
SWIDTH 4000 0
DWIDTH 176 0
BBX 44 60 0 -64
BITMAP
000000000000
000000000000
000000000000
000000000000
000000000000
000000000000
000000000000
000000000000
000000000000
000000000000
000000000000
000000000000
000000000000
000000000000
000000000000
000000000000
0FFF00000000
0FFF00000000
0FFF00000000
0FFF00000000
F000F0000000
F000F0000000
F000F0000000
F000F0000000
F00FF0000000
F00FF0000000
F00FF0000000
F00FF0000000
F0F0F0000000
F0F0F0000000
F0F0F0000000
F0F0F0000000
FF00F0000000
FF00F0000000
FF00F0000000
FF00F0000000
F000F0000000
F000F0000000
F000F0000000
F000F0000000
0FFF00000000
0FFF00000000
0FFF00000000
0FFF00000000
000000000000
000000000000
000000000000
000000000000
000000000000
000000000000
000000000000
000000000000
000000000000
000000000000
000000000000
000000000000
000000000000
000000000000
000000000000
000000000000
ENDCHAR
STARTCHAR uni0031
ENCODING 49
SWIDTH 4000 0
DWIDTH 176 0
BBX 44 60 0 -64
BITMAP
000000000000
000000000000
000000000000
000000000000
000000000000
000000000000
000000000000
000000000000
000000000000
000000000000
000000000000
000000000000
000000000000
000000000000
000000000000
000000000000
00F000000000
00F000000000
00F000000000
00F000000000
FFF000000000
FFF000000000
FFF000000000
FFF000000000
00F000000000
00F000000000
00F000000000
00F000000000
00F000000000
00F000000000
00F000000000
00F000000000
00F000000000
00F000000000
00F000000000
00F000000000
00F000000000
00F000000000
00F000000000
00F000000000
FFFFF0000000
FFFFF0000000
FFFFF0000000
FFFFF0000000
000000000000
000000000000
000000000000
000000000000
000000000000
000000000000
000000000000
000000000000
000000000000
000000000000
000000000000
000000000000
000000000000
000000000000
000000000000
000000000000
ENDCHAR
STARTCHAR uni0032
ENCODING 50
SWIDTH 4000 0
DWIDTH 176 0
BBX 44 60 0 -64
BITMAP
000000000000
000000000000
000000000000
000000000000
000000000000
000000000000
000000000000
000000000000
000000000000
000000000000
000000000000
000000000000
000000000000
000000000000
000000000000
000000000000
0FFF00000000
0FFF00000000
0FFF00000000
0FFF00000000
F000F0000000
F000F0000000
F000F0000000
F000F0000000
0000F0000000
0000F0000000
0000F0000000
0000F0000000
00FF00000000
00FF00000000
00FF00000000
00FF00000000
0F0000000000
0F0000000000
0F0000000000
0F0000000000
F00000000000
F00000000000
F00000000000
F00000000000
FFFFF0000000
FFFFF0000000
FFFFF0000000
FFFFF0000000
000000000000
000000000000
000000000000
000000000000
000000000000
000000000000
000000000000
000000000000
000000000000
000000000000
000000000000
000000000000
000000000000
000000000000
000000000000
000000000000
ENDCHAR
STARTCHAR uni0033
ENCODING 51
SWIDTH 4000 0
DWIDTH 176 0
BBX 44 60 0 -64
BITMAP
000000000000
000000000000
000000000000
000000000000
000000000000
000000000000
000000000000
000000000000
000000000000
000000000000
000000000000
000000000000
000000000000
000000000000
000000000000
000000000000
0FFF00000000
0FFF00000000
0FFF00000000
0FFF00000000
F000F0000000
F000F0000000
F000F0000000
F000F0000000
0000F0000000
0000F0000000
0000F0000000
0000F0000000
00FF00000000
00FF00000000
00FF00000000
00FF00000000
0000F0000000
0000F0000000
0000F0000000
0000F0000000
F000F0000000
F000F0000000
F000F0000000
F000F0000000
0FFF00000000
0FFF00000000
0FFF00000000
0FFF00000000
000000000000
000000000000
000000000000
000000000000
000000000000
000000000000
000000000000
000000000000
000000000000
000000000000
000000000000
000000000000
000000000000
000000000000
000000000000
000000000000
ENDCHAR
STARTCHAR uni0034
ENCODING 52
SWIDTH 4000 0
DWIDTH 176 0
BBX 44 60 0 -64
BITMAP
000000000000
000000000000
000000000000
000000000000
000000000000
000000000000
000000000000
000000000000
000000000000
000000000000
000000000000
000000000000
000000000000
000000000000
000000000000
000000000000
00FF00000000
00FF00000000
00FF00000000
00FF00000000
0F0F00000000
0F0F00000000
0F0F00000000
0F0F00000000
0F0F00000000
0F0F00000000
0F0F00000000
0F0F00000000
F00F00000000
F00F00000000
F00F00000000
F00F00000000
F00F00000000
F00F00000000
F00F00000000
F00F00000000
FFFFF0000000
FFFFF0000000
FFFFF0000000
FFFFF0000000
000F00000000
000F00000000
000F00000000
000F00000000
000000000000
000000000000
000000000000
000000000000
000000000000
000000000000
000000000000
000000000000
000000000000
000000000000
000000000000
000000000000
000000000000
000000000000
000000000000
000000000000
ENDCHAR
STARTCHAR uni0035
ENCODING 53
SWIDTH 4000 0
DWIDTH 176 0
BBX 44 60 0 -64
BITMAP
000000000000
000000000000
000000000000
000000000000
000000000000
000000000000
000000000000
000000000000
000000000000
000000000000
000000000000
000000000000
000000000000
000000000000
000000000000
000000000000
FFFFF0000000
FFFFF0000000
FFFFF0000000
FFFFF0000000
F00000000000
F00000000000
F00000000000
F00000000000
F00000000000
F00000000000
F00000000000
F00000000000
FFFF00000000
FFFF00000000
FFFF00000000
FFFF00000000
0000F0000000
0000F0000000
0000F0000000
0000F0000000
F000F0000000
F000F0000000
F000F0000000
F000F0000000
0FFF00000000
0FFF00000000
0FFF00000000
0FFF00000000
000000000000
000000000000
000000000000
000000000000
000000000000
000000000000
000000000000
000000000000
000000000000
000000000000
000000000000
000000000000
000000000000
000000000000
000000000000
000000000000
ENDCHAR
STARTCHAR uni0036
ENCODING 54
SWIDTH 4000 0
DWIDTH 176 0
BBX 44 60 0 -64
BITMAP
000000000000
000000000000
000000000000
000000000000
000000000000
000000000000
000000000000
000000000000
000000000000
000000000000
000000000000
000000000000
000000000000
000000000000
000000000000
000000000000
0FFF00000000
0FFF00000000
0FFF00000000
0FFF00000000
F000F0000000
F000F0000000
F000F0000000
F000F0000000
F00000000000
F00000000000
F00000000000
F00000000000
FFFF00000000
FFFF00000000
FFFF00000000
FFFF00000000
F000F0000000
F000F0000000
F000F0000000
F000F0000000
F000F0000000
F000F0000000
F000F0000000
F000F0000000
0FFF00000000
0FFF00000000
0FFF00000000
0FFF00000000
000000000000
000000000000
000000000000
000000000000
000000000000
000000000000
000000000000
000000000000
000000000000
000000000000
000000000000
000000000000
000000000000
000000000000
000000000000
000000000000
ENDCHAR
STARTCHAR uni0037
ENCODING 55
SWIDTH 4000 0
DWIDTH 176 0
BBX 44 60 0 -64
BITMAP
000000000000
000000000000
000000000000
000000000000
000000000000
000000000000
000000000000
000000000000
000000000000
000000000000
000000000000
000000000000
000000000000
000000000000
000000000000
000000000000
FFFFF0000000
FFFFF0000000
FFFFF0000000
FFFFF0000000
0000F0000000
0000F0000000
0000F0000000
0000F0000000
000F00000000
000F00000000
000F00000000
000F00000000
000F00000000
000F00000000
000F00000000
000F00000000
00F000000000
00F000000000
00F000000000
00F000000000
00F000000000
00F000000000
00F000000000
00F000000000
00F000000000
00F000000000
00F000000000
00F000000000
000000000000
000000000000
000000000000
000000000000
000000000000
000000000000
000000000000
000000000000
000000000000
000000000000
000000000000
000000000000
000000000000
000000000000
000000000000
000000000000
ENDCHAR
STARTCHAR uni0038
ENCODING 56
SWIDTH 4000 0
DWIDTH 176 0
BBX 44 60 0 -64
BITMAP
000000000000
000000000000
000000000000
000000000000
000000000000
000000000000
000000000000
000000000000
000000000000
000000000000
000000000000
000000000000
000000000000
000000000000
000000000000
000000000000
0FFF00000000
0FFF00000000
0FFF00000000
0FFF00000000
F000F0000000
F000F0000000
F000F0000000
F000F0000000
F000F0000000
F000F0000000
F000F0000000
F000F0000000
0FFF00000000
0FFF00000000
0FFF00000000
0FFF00000000
F000F0000000
F000F0000000
F000F0000000
F000F0000000
F000F0000000
F000F0000000
F000F0000000
F000F0000000
0FFF00000000
0FFF00000000
0FFF00000000
0FFF00000000
000000000000
000000000000
000000000000
000000000000
000000000000
000000000000
000000000000
000000000000
000000000000
000000000000
000000000000
000000000000
000000000000
000000000000
000000000000
000000000000
ENDCHAR
STARTCHAR uni0039
ENCODING 57
SWIDTH 4000 0
DWIDTH 176 0
BBX 44 60 0 -64
BITMAP
000000000000
000000000000
000000000000
000000000000
000000000000
000000000000
000000000000
000000000000
000000000000
000000000000
000000000000
000000000000
000000000000
000000000000
000000000000
000000000000
0FFF00000000
0FFF00000000
0FFF00000000
0FFF00000000
F000F0000000
F000F0000000
F000F0000000
F000F0000000
F000F0000000
F000F0000000
F000F0000000
F000F0000000
0FFFF0000000
0FFFF0000000
0FFFF0000000
0FFFF0000000
0000F0000000
0000F0000000
0000F0000000
0000F0000000
F000F0000000
F000F0000000
F000F0000000
F000F0000000
0FFF00000000
0FFF00000000
0FFF00000000
0FFF00000000
000000000000
000000000000
000000000000
000000000000
000000000000
000000000000
000000000000
000000000000
000000000000
000000000000
000000000000
000000000000
000000000000
000000000000
000000000000
000000000000
ENDCHAR
STARTCHAR uni003A
ENCODING 58
SWIDTH 4000 0
DWIDTH 176 0
BBX 44 60 0 -64
BITMAP
000000000000
000000000000
000000000000
000000000000
000000000000
000000000000
000000000000
000000000000
000000000000
000000000000
000000000000
000000000000
000000000000
000000000000
000000000000
000000000000
000000000000
000000000000
000000000000
000000000000
000000000000
000000000000
000000000000
000000000000
0F0000000000
0F0000000000
0F0000000000
0F0000000000
000000000000
000000000000
000000000000
000000000000
000000000000
000000000000
000000000000
000000000000
000000000000
000000000000
000000000000
000000000000
0F0000000000
0F0000000000
0F0000000000
0F0000000000
000000000000
000000000000
000000000000
000000000000
000000000000
000000000000
000000000000
000000000000
000000000000
000000000000
000000000000
000000000000
000000000000
000000000000
000000000000
000000000000
ENDCHAR
STARTCHAR uni003B
ENCODING 59
SWIDTH 4000 0
DWIDTH 176 0
BBX 44 60 0 -64
BITMAP
000000000000
000000000000
000000000000
000000000000
000000000000
000000000000
000000000000
000000000000
000000000000
000000000000
000000000000
000000000000
000000000000
000000000000
000000000000
000000000000
000000000000
000000000000
000000000000
000000000000
000000000000
000000000000
000000000000
000000000000
0F0000000000
0F0000000000
0F0000000000
0F0000000000
000000000000
000000000000
000000000000
000000000000
000000000000
000000000000
000000000000
000000000000
000000000000
000000000000
000000000000
000000000000
0F0000000000
0F0000000000
0F0000000000
0F0000000000
0F0000000000
0F0000000000
0F0000000000
0F0000000000
F00000000000
F00000000000
F00000000000
F00000000000
000000000000
000000000000
000000000000
000000000000
000000000000
000000000000
000000000000
000000000000
ENDCHAR
STARTCHAR uni003C
ENCODING 60
SWIDTH 4000 0
DWIDTH 176 0
BBX 44 60 0 -64
BITMAP
000000000000
000000000000
000000000000
000000000000
000000000000
000000000000
000000000000
000000000000
000000000000
000000000000
000000000000
000000000000
000000000000
000000000000
000000000000
000000000000
000000000000
000000000000
000000000000
000000000000
000FF0000000
000FF0000000
000FF0000000
000FF0000000
0FF000000000
0FF000000000
0FF000000000
0FF000000000
F00000000000
F00000000000
F00000000000
F00000000000
0FF000000000
0FF000000000
0FF000000000
0FF000000000
000FF0000000
000FF0000000
000FF0000000
000FF0000000
000000000000
000000000000
000000000000
000000000000
000000000000
000000000000
000000000000
000000000000
000000000000
000000000000
000000000000
000000000000
000000000000
000000000000
000000000000
000000000000
000000000000
000000000000
000000000000
000000000000
ENDCHAR
STARTCHAR uni003D
ENCODING 61
SWIDTH 4000 0
DWIDTH 176 0
BBX 44 60 0 -64
BITMAP
000000000000
000000000000
000000000000
000000000000
000000000000
000000000000
000000000000
000000000000
000000000000
000000000000
000000000000
000000000000
000000000000
000000000000
000000000000
000000000000
000000000000
000000000000
000000000000
000000000000
000000000000
000000000000
000000000000
000000000000
FFFFF0000000
FFFFF0000000
FFFFF0000000
FFFFF0000000
000000000000
000000000000
000000000000
000000000000
FFFFF0000000
FFFFF0000000
FFFFF0000000
FFFFF0000000
000000000000
000000000000
000000000000
000000000000
000000000000
000000000000
000000000000
000000000000
000000000000
000000000000
000000000000
000000000000
000000000000
000000000000
000000000000
000000000000
000000000000
000000000000
000000000000
000000000000
000000000000
000000000000
000000000000
000000000000
ENDCHAR
STARTCHAR uni003E
ENCODING 62
SWIDTH 4000 0
DWIDTH 176 0
BBX 44 60 0 -64
BITMAP
000000000000
000000000000
000000000000
000000000000
000000000000
000000000000
000000000000
000000000000
000000000000
000000000000
000000000000
000000000000
000000000000
000000000000
000000000000
000000000000
000000000000
000000000000
000000000000
000000000000
FF0000000000
FF0000000000
FF0000000000
FF0000000000
00FF00000000
00FF00000000
00FF00000000
00FF00000000
0000F0000000
0000F0000000
0000F0000000
0000F0000000
00FF00000000
00FF00000000
00FF00000000
00FF00000000
FF0000000000
FF0000000000
FF0000000000
FF0000000000
000000000000
000000000000
000000000000
000000000000
000000000000
000000000000
000000000000
000000000000
000000000000
000000000000
000000000000
000000000000
000000000000
000000000000
000000000000
000000000000
000000000000
000000000000
000000000000
000000000000
ENDCHAR
STARTCHAR uni003F
ENCODING 63
SWIDTH 4000 0
DWIDTH 176 0
BBX 44 60 0 -64
BITMAP
000000000000
000000000000
000000000000
000000000000
000000000000
000000000000
000000000000
000000000000
000000000000
000000000000
000000000000
000000000000
000000000000
000000000000
000000000000
000000000000
0FFF00000000
0FFF00000000
0FFF00000000
0FFF00000000
F000F0000000
F000F0000000
F000F0000000
F000F0000000
0000F0000000
0000F0000000
0000F0000000
0000F0000000
000F00000000
000F00000000
000F00000000
000F00000000
00F000000000
00F000000000
00F000000000
00F000000000
000000000000
000000000000
000000000000
000000000000
00F000000000
00F000000000
00F000000000
00F000000000
000000000000
000000000000
000000000000
000000000000
000000000000
000000000000
000000000000
000000000000
000000000000
000000000000
000000000000
000000000000
000000000000
000000000000
000000000000
000000000000
ENDCHAR
STARTCHAR uni0040
ENCODING 64
SWIDTH 4000 0
DWIDTH 176 0
BBX 44 60 0 -64
BITMAP
000000000000
000000000000
000000000000
000000000000
000000000000
000000000000
000000000000
000000000000
000000000000
000000000000
000000000000
000000000000
000000000000
000000000000
000000000000
000000000000
0FFFF0000000
0FFFF0000000
0FFFF0000000
0FFFF0000000
F0000F000000
F0000F000000
F0000F000000
F0000F000000
F00FFF000000
F00FFF000000
F00FFF000000
F00FFF000000
F0F00F000000
F0F00F000000
F0F00F000000
F0F00F000000
F0F00F000000
F0F00F000000
F0F00F000000
F0F00F000000
F0FFFF000000
F0FFFF000000
F0FFFF000000
F0FFFF000000
F00000000000
F00000000000
F00000000000
F00000000000
0FFFF0000000
0FFFF0000000
0FFFF0000000
0FFFF0000000
000000000000
000000000000
000000000000
000000000000
000000000000
000000000000
000000000000
000000000000
000000000000
000000000000
000000000000
000000000000
ENDCHAR
STARTCHAR uni0041
ENCODING 65
SWIDTH 4000 0
DWIDTH 176 0
BBX 44 60 0 -64
BITMAP
000000000000
000000000000
000000000000
000000000000
000000000000
000000000000
000000000000
000000000000
000000000000
000000000000
000000000000
000000000000
000000000000
000000000000
000000000000
000000000000
0FFF00000000
0FFF00000000
0FFF00000000
0FFF00000000
F000F0000000
F000F0000000
F000F0000000
F000F0000000
F000F0000000
F000F0000000
F000F0000000
F000F0000000
F000F0000000
F000F0000000
F000F0000000
F000F0000000
FFFFF0000000
FFFFF0000000
FFFFF0000000
FFFFF0000000
F000F0000000
F000F0000000
F000F0000000
F000F0000000
F000F0000000
F000F0000000
F000F0000000
F000F0000000
000000000000
000000000000
000000000000
000000000000
000000000000
000000000000
000000000000
000000000000
000000000000
000000000000
000000000000
000000000000
000000000000
000000000000
000000000000
000000000000
ENDCHAR
STARTCHAR uni0042
ENCODING 66
SWIDTH 4000 0
DWIDTH 176 0
BBX 44 60 0 -64
BITMAP
000000000000
000000000000
000000000000
000000000000
000000000000
000000000000
000000000000
000000000000
000000000000
000000000000
000000000000
000000000000
000000000000
000000000000
000000000000
000000000000
FFFF00000000
FFFF00000000
FFFF00000000
FFFF00000000
F000F0000000
F000F0000000
F000F0000000
F000F0000000
F000F0000000
F000F0000000
F000F0000000
F000F0000000
FFFF00000000
FFFF00000000
FFFF00000000
FFFF00000000
F000F0000000
F000F0000000
F000F0000000
F000F0000000
F000F0000000
F000F0000000
F000F0000000
F000F0000000
FFFF00000000
FFFF00000000
FFFF00000000
FFFF00000000
000000000000
000000000000
000000000000
000000000000
000000000000
000000000000
000000000000
000000000000
000000000000
000000000000
000000000000
000000000000
000000000000
000000000000
000000000000
000000000000
ENDCHAR
STARTCHAR uni0043
ENCODING 67
SWIDTH 4000 0
DWIDTH 176 0
BBX 44 60 0 -64
BITMAP
000000000000
000000000000
000000000000
000000000000
000000000000
000000000000
000000000000
000000000000
000000000000
000000000000
000000000000
000000000000
000000000000
000000000000
000000000000
000000000000
0FFF00000000
0FFF00000000
0FFF00000000
0FFF00000000
F000F0000000
F000F0000000
F000F0000000
F000F0000000
F00000000000
F00000000000
F00000000000
F00000000000
F00000000000
F00000000000
F00000000000
F00000000000
F00000000000
F00000000000
F00000000000
F00000000000
F000F0000000
F000F0000000
F000F0000000
F000F0000000
0FFF00000000
0FFF00000000
0FFF00000000
0FFF00000000
000000000000
000000000000
000000000000
000000000000
000000000000
000000000000
000000000000
000000000000
000000000000
000000000000
000000000000
000000000000
000000000000
000000000000
000000000000
000000000000
ENDCHAR
STARTCHAR uni0044
ENCODING 68
SWIDTH 4000 0
DWIDTH 176 0
BBX 44 60 0 -64
BITMAP
000000000000
000000000000
000000000000
000000000000
000000000000
000000000000
000000000000
000000000000
000000000000
000000000000
000000000000
000000000000
000000000000
000000000000
000000000000
000000000000
FFFF00000000
FFFF00000000
FFFF00000000
FFFF00000000
F000F0000000
F000F0000000
F000F0000000
F000F0000000
F000F0000000
F000F0000000
F000F0000000
F000F0000000
F000F0000000
F000F0000000
F000F0000000
F000F0000000
F000F0000000
F000F0000000
F000F0000000
F000F0000000
F000F0000000
F000F0000000
F000F0000000
F000F0000000
FFFF00000000
FFFF00000000
FFFF00000000
FFFF00000000
000000000000
000000000000
000000000000
000000000000
000000000000
000000000000
000000000000
000000000000
000000000000
000000000000
000000000000
000000000000
000000000000
000000000000
000000000000
000000000000
ENDCHAR
STARTCHAR uni0045
ENCODING 69
SWIDTH 4000 0
DWIDTH 176 0
BBX 44 60 0 -64
BITMAP
000000000000
000000000000
000000000000
000000000000
000000000000
000000000000
000000000000
000000000000
000000000000
000000000000
000000000000
000000000000
000000000000
000000000000
000000000000
000000000000
FFFFF0000000
FFFFF0000000
FFFFF0000000
FFFFF0000000
F00000000000
F00000000000
F00000000000
F00000000000
F00000000000
F00000000000
F00000000000
F00000000000
FFFF00000000
FFFF00000000
FFFF00000000
FFFF00000000
F00000000000
F00000000000
F00000000000
F00000000000
F00000000000
F00000000000
F00000000000
F00000000000
FFFFF0000000
FFFFF0000000
FFFFF0000000
FFFFF0000000
000000000000
000000000000
000000000000
000000000000
000000000000
000000000000
000000000000
000000000000
000000000000
000000000000
000000000000
000000000000
000000000000
000000000000
000000000000
000000000000
ENDCHAR
STARTCHAR uni0046
ENCODING 70
SWIDTH 4000 0
DWIDTH 176 0
BBX 44 60 0 -64
BITMAP
000000000000
000000000000
000000000000
000000000000
000000000000
000000000000
000000000000
000000000000
000000000000
000000000000
000000000000
000000000000
000000000000
000000000000
000000000000
000000000000
FFFFF0000000
FFFFF0000000
FFFFF0000000
FFFFF0000000
F00000000000
F00000000000
F00000000000
F00000000000
F00000000000
F00000000000
F00000000000
F00000000000
FFFF00000000
FFFF00000000
FFFF00000000
FFFF00000000
F00000000000
F00000000000
F00000000000
F00000000000
F00000000000
F00000000000
F00000000000
F00000000000
F00000000000
F00000000000
F00000000000
F00000000000
000000000000
000000000000
000000000000
000000000000
000000000000
000000000000
000000000000
000000000000
000000000000
000000000000
000000000000
000000000000
000000000000
000000000000
000000000000
000000000000
ENDCHAR
STARTCHAR uni0047
ENCODING 71
SWIDTH 4000 0
DWIDTH 176 0
BBX 44 60 0 -64
BITMAP
000000000000
000000000000
000000000000
000000000000
000000000000
000000000000
000000000000
000000000000
000000000000
000000000000
000000000000
000000000000
000000000000
000000000000
000000000000
000000000000
0FFF00000000
0FFF00000000
0FFF00000000
0FFF00000000
F000F0000000
F000F0000000
F000F0000000
F000F0000000
F00000000000
F00000000000
F00000000000
F00000000000
F00000000000
F00000000000
F00000000000
F00000000000
F00FF0000000
F00FF0000000
F00FF0000000
F00FF0000000
F000F0000000
F000F0000000
F000F0000000
F000F0000000
0FFFF0000000
0FFFF0000000
0FFFF0000000
0FFFF0000000
000000000000
000000000000
000000000000
000000000000
000000000000
000000000000
000000000000
000000000000
000000000000
000000000000
000000000000
000000000000
000000000000
000000000000
000000000000
000000000000
ENDCHAR
STARTCHAR uni0048
ENCODING 72
SWIDTH 4000 0
DWIDTH 176 0
BBX 44 60 0 -64
BITMAP
000000000000
000000000000
000000000000
000000000000
000000000000
000000000000
000000000000
000000000000
000000000000
000000000000
000000000000
000000000000
000000000000
000000000000
000000000000
000000000000
F000F0000000
F000F0000000
F000F0000000
F000F0000000
F000F0000000
F000F0000000
F000F0000000
F000F0000000
F000F0000000
F000F0000000
F000F0000000
F000F0000000
FFFFF0000000
FFFFF0000000
FFFFF0000000
FFFFF0000000
F000F0000000
F000F0000000
F000F0000000
F000F0000000
F000F0000000
F000F0000000
F000F0000000
F000F0000000
F000F0000000
F000F0000000
F000F0000000
F000F0000000
000000000000
000000000000
000000000000
000000000000
000000000000
000000000000
000000000000
000000000000
000000000000
000000000000
000000000000
000000000000
000000000000
000000000000
000000000000
000000000000
ENDCHAR
STARTCHAR uni0049
ENCODING 73
SWIDTH 4000 0
DWIDTH 176 0
BBX 44 60 0 -64
BITMAP
000000000000
000000000000
000000000000
000000000000
000000000000
000000000000
000000000000
000000000000
000000000000
000000000000
000000000000
000000000000
000000000000
000000000000
000000000000
000000000000
FFF000000000
FFF000000000
FFF000000000
FFF000000000
0F0000000000
0F0000000000
0F0000000000
0F0000000000
0F0000000000
0F0000000000
0F0000000000
0F0000000000
0F0000000000
0F0000000000
0F0000000000
0F0000000000
0F0000000000
0F0000000000
0F0000000000
0F0000000000
0F0000000000
0F0000000000
0F0000000000
0F0000000000
FFF000000000
FFF000000000
FFF000000000
FFF000000000
000000000000
000000000000
000000000000
000000000000
000000000000
000000000000
000000000000
000000000000
000000000000
000000000000
000000000000
000000000000
000000000000
000000000000
000000000000
000000000000
ENDCHAR
STARTCHAR uni004A
ENCODING 74
SWIDTH 4000 0
DWIDTH 176 0
BBX 44 60 0 -64
BITMAP
000000000000
000000000000
000000000000
000000000000
000000000000
000000000000
000000000000
000000000000
000000000000
000000000000
000000000000
000000000000
000000000000
000000000000
000000000000
000000000000
0000F0000000
0000F0000000
0000F0000000
0000F0000000
0000F0000000
0000F0000000
0000F0000000
0000F0000000
0000F0000000
0000F0000000
0000F0000000
0000F0000000
0000F0000000
0000F0000000
0000F0000000
0000F0000000
F000F0000000
F000F0000000
F000F0000000
F000F0000000
F000F0000000
F000F0000000
F000F0000000
F000F0000000
0FFF00000000
0FFF00000000
0FFF00000000
0FFF00000000
000000000000
000000000000
000000000000
000000000000
000000000000
000000000000
000000000000
000000000000
000000000000
000000000000
000000000000
000000000000
000000000000
000000000000
000000000000
000000000000
ENDCHAR
STARTCHAR uni004B
ENCODING 75
SWIDTH 4000 0
DWIDTH 176 0
BBX 44 60 0 -64
BITMAP
000000000000
000000000000
000000000000
000000000000
000000000000
000000000000
000000000000
000000000000
000000000000
000000000000
000000000000
000000000000
000000000000
000000000000
000000000000
000000000000
F000F0000000
F000F0000000
F000F0000000
F000F0000000
F00F00000000
F00F00000000
F00F00000000
F00F00000000
F0F000000000
F0F000000000
F0F000000000
F0F000000000
FF0000000000
FF0000000000
FF0000000000
FF0000000000
F0F000000000
F0F000000000
F0F000000000
F0F000000000
F00F00000000
F00F00000000
F00F00000000
F00F00000000
F000F0000000
F000F0000000
F000F0000000
F000F0000000
000000000000
000000000000
000000000000
000000000000
000000000000
000000000000
000000000000
000000000000
000000000000
000000000000
000000000000
000000000000
000000000000
000000000000
000000000000
000000000000
ENDCHAR
STARTCHAR uni004C
ENCODING 76
SWIDTH 4000 0
DWIDTH 176 0
BBX 44 60 0 -64
BITMAP
000000000000
000000000000
000000000000
000000000000
000000000000
000000000000
000000000000
000000000000
000000000000
000000000000
000000000000
000000000000
000000000000
000000000000
000000000000
000000000000
F00000000000
F00000000000
F00000000000
F00000000000
F00000000000
F00000000000
F00000000000
F00000000000
F00000000000
F00000000000
F00000000000
F00000000000
F00000000000
F00000000000
F00000000000
F00000000000
F00000000000
F00000000000
F00000000000
F00000000000
F00000000000
F00000000000
F00000000000
F00000000000
FFFF00000000
FFFF00000000
FFFF00000000
FFFF00000000
000000000000
000000000000
000000000000
000000000000
000000000000
000000000000
000000000000
000000000000
000000000000
000000000000
000000000000
000000000000
000000000000
000000000000
000000000000
000000000000
ENDCHAR
STARTCHAR uni004D
ENCODING 77
SWIDTH 4000 0
DWIDTH 176 0
BBX 44 60 0 -64
BITMAP
000000000000
000000000000
000000000000
000000000000
000000000000
000000000000
000000000000
000000000000
000000000000
000000000000
000000000000
000000000000
000000000000
000000000000
000000000000
000000000000
F00000F00000
F00000F00000
F00000F00000
F00000F00000
FF000FF00000
FF000FF00000
FF000FF00000
FF000FF00000
F0F0F0F00000
F0F0F0F00000
F0F0F0F00000
F0F0F0F00000
F00F00F00000
F00F00F00000
F00F00F00000
F00F00F00000
F00000F00000
F00000F00000
F00000F00000
F00000F00000
F00000F00000
F00000F00000
F00000F00000
F00000F00000
F00000F00000
F00000F00000
F00000F00000
F00000F00000
000000000000
000000000000
000000000000
000000000000
000000000000
000000000000
000000000000
000000000000
000000000000
000000000000
000000000000
000000000000
000000000000
000000000000
000000000000
000000000000
ENDCHAR
STARTCHAR uni004E
ENCODING 78
SWIDTH 4000 0
DWIDTH 176 0
BBX 44 60 0 -64
BITMAP
000000000000
000000000000
000000000000
000000000000
000000000000
000000000000
000000000000
000000000000
000000000000
000000000000
000000000000
000000000000
000000000000
000000000000
000000000000
000000000000
F000F0000000
F000F0000000
F000F0000000
F000F0000000
F000F0000000
F000F0000000
F000F0000000
F000F0000000
FF00F0000000
FF00F0000000
FF00F0000000
FF00F0000000
F0F0F0000000
F0F0F0000000
F0F0F0000000
F0F0F0000000
F00FF0000000
F00FF0000000
F00FF0000000
F00FF0000000
F000F0000000
F000F0000000
F000F0000000
F000F0000000
F000F0000000
F000F0000000
F000F0000000
F000F0000000
000000000000
000000000000
000000000000
000000000000
000000000000
000000000000
000000000000
000000000000
000000000000
000000000000
000000000000
000000000000
000000000000
000000000000
000000000000
000000000000
ENDCHAR
STARTCHAR uni004F
ENCODING 79
SWIDTH 4000 0
DWIDTH 176 0
BBX 44 60 0 -64
BITMAP
000000000000
000000000000
000000000000
000000000000
000000000000
000000000000
000000000000
000000000000
000000000000
000000000000
000000000000
000000000000
000000000000
000000000000
000000000000
000000000000
0FFF00000000
0FFF00000000
0FFF00000000
0FFF00000000
F000F0000000
F000F0000000
F000F0000000
F000F0000000
F000F0000000
F000F0000000
F000F0000000
F000F0000000
F000F0000000
F000F0000000
F000F0000000
F000F0000000
F000F0000000
F000F0000000
F000F0000000
F000F0000000
F000F0000000
F000F0000000
F000F0000000
F000F0000000
0FFF00000000
0FFF00000000
0FFF00000000
0FFF00000000
000000000000
000000000000
000000000000
000000000000
000000000000
000000000000
000000000000
000000000000
000000000000
000000000000
000000000000
000000000000
000000000000
000000000000
000000000000
000000000000
ENDCHAR
STARTCHAR uni0050
ENCODING 80
SWIDTH 4000 0
DWIDTH 176 0
BBX 44 60 0 -64
BITMAP
000000000000
000000000000
000000000000
000000000000
000000000000
000000000000
000000000000
000000000000
000000000000
000000000000
000000000000
000000000000
000000000000
000000000000
000000000000
000000000000
FFFF00000000
FFFF00000000
FFFF00000000
FFFF00000000
F000F0000000
F000F0000000
F000F0000000
F000F0000000
F000F0000000
F000F0000000
F000F0000000
F000F0000000
F000F0000000
F000F0000000
F000F0000000
F000F0000000
FFFF00000000
FFFF00000000
FFFF00000000
FFFF00000000
F00000000000
F00000000000
F00000000000
F00000000000
F00000000000
F00000000000
F00000000000
F00000000000
000000000000
000000000000
000000000000
000000000000
000000000000
000000000000
000000000000
000000000000
000000000000
000000000000
000000000000
000000000000
000000000000
000000000000
000000000000
000000000000
ENDCHAR
STARTCHAR uni0051
ENCODING 81
SWIDTH 4000 0
DWIDTH 176 0
BBX 44 60 0 -64
BITMAP
000000000000
000000000000
000000000000
000000000000
000000000000
000000000000
000000000000
000000000000
000000000000
000000000000
000000000000
000000000000
000000000000
000000000000
000000000000
000000000000
0FFF00000000
0FFF00000000
0FFF00000000
0FFF00000000
F000F0000000
F000F0000000
F000F0000000
F000F0000000
F000F0000000
F000F0000000
F000F0000000
F000F0000000
F000F0000000
F000F0000000
F000F0000000
F000F0000000
F0F0F0000000
F0F0F0000000
F0F0F0000000
F0F0F0000000
F00F00000000
F00F00000000
F00F00000000
F00F00000000
0FF0F0000000
0FF0F0000000
0FF0F0000000
0FF0F0000000
000000000000
000000000000
000000000000
000000000000
000000000000
000000000000
000000000000
000000000000
000000000000
000000000000
000000000000
000000000000
000000000000
000000000000
000000000000
000000000000
ENDCHAR
STARTCHAR uni0052
ENCODING 82
SWIDTH 4000 0
DWIDTH 176 0
BBX 44 60 0 -64
BITMAP
000000000000
000000000000
000000000000
000000000000
000000000000
000000000000
000000000000
000000000000
000000000000
000000000000
000000000000
000000000000
000000000000
000000000000
000000000000
000000000000
FFFF00000000
FFFF00000000
FFFF00000000
FFFF00000000
F000F0000000
F000F0000000
F000F0000000
F000F0000000
F000F0000000
F000F0000000
F000F0000000
F000F0000000
FFFF00000000
FFFF00000000
FFFF00000000
FFFF00000000
F000F0000000
F000F0000000
F000F0000000
F000F0000000
F000F0000000
F000F0000000
F000F0000000
F000F0000000
F000F0000000
F000F0000000
F000F0000000
F000F0000000
000000000000
000000000000
000000000000
000000000000
000000000000
000000000000
000000000000
000000000000
000000000000
000000000000
000000000000
000000000000
000000000000
000000000000
000000000000
000000000000
ENDCHAR
STARTCHAR uni0053
ENCODING 83
SWIDTH 4000 0
DWIDTH 176 0
BBX 44 60 0 -64
BITMAP
000000000000
000000000000
000000000000
000000000000
000000000000
000000000000
000000000000
000000000000
000000000000
000000000000
000000000000
000000000000
000000000000
000000000000
000000000000
000000000000
0FFF00000000
0FFF00000000
0FFF00000000
0FFF00000000
F000F0000000
F000F0000000
F000F0000000
F000F0000000
F00000000000
F00000000000
F00000000000
F00000000000
0FFF00000000
0FFF00000000
0FFF00000000
0FFF00000000
0000F0000000
0000F0000000
0000F0000000
0000F0000000
F000F0000000
F000F0000000
F000F0000000
F000F0000000
0FFF00000000
0FFF00000000
0FFF00000000
0FFF00000000
000000000000
000000000000
000000000000
000000000000
000000000000
000000000000
000000000000
000000000000
000000000000
000000000000
000000000000
000000000000
000000000000
000000000000
000000000000
000000000000
ENDCHAR
STARTCHAR uni0054
ENCODING 84
SWIDTH 4000 0
DWIDTH 176 0
BBX 44 60 0 -64
BITMAP
000000000000
000000000000
000000000000
000000000000
000000000000
000000000000
000000000000
000000000000
000000000000
000000000000
000000000000
000000000000
000000000000
000000000000
000000000000
000000000000
FFFFF0000000
FFFFF0000000
FFFFF0000000
FFFFF0000000
00F000000000
00F000000000
00F000000000
00F000000000
00F000000000
00F000000000
00F000000000
00F000000000
00F000000000
00F000000000
00F000000000
00F000000000
00F000000000
00F000000000
00F000000000
00F000000000
00F000000000
00F000000000
00F000000000
00F000000000
00F000000000
00F000000000
00F000000000
00F000000000
000000000000
000000000000
000000000000
000000000000
000000000000
000000000000
000000000000
000000000000
000000000000
000000000000
000000000000
000000000000
000000000000
000000000000
000000000000
000000000000
ENDCHAR
STARTCHAR uni0055
ENCODING 85
SWIDTH 4000 0
DWIDTH 176 0
BBX 44 60 0 -64
BITMAP
000000000000
000000000000
000000000000
000000000000
000000000000
000000000000
000000000000
000000000000
000000000000
000000000000
000000000000
000000000000
000000000000
000000000000
000000000000
000000000000
F000F0000000
F000F0000000
F000F0000000
F000F0000000
F000F0000000
F000F0000000
F000F0000000
F000F0000000
F000F0000000
F000F0000000
F000F0000000
F000F0000000
F000F0000000
F000F0000000
F000F0000000
F000F0000000
F000F0000000
F000F0000000
F000F0000000
F000F0000000
F000F0000000
F000F0000000
F000F0000000
F000F0000000
0FFF00000000
0FFF00000000
0FFF00000000
0FFF00000000
000000000000
000000000000
000000000000
000000000000
000000000000
000000000000
000000000000
000000000000
000000000000
000000000000
000000000000
000000000000
000000000000
000000000000
000000000000
000000000000
ENDCHAR
STARTCHAR uni0056
ENCODING 86
SWIDTH 4000 0
DWIDTH 176 0
BBX 44 60 0 -64
BITMAP
000000000000
000000000000
000000000000
000000000000
000000000000
000000000000
000000000000
000000000000
000000000000
000000000000
000000000000
000000000000
000000000000
000000000000
000000000000
000000000000
F000F0000000
F000F0000000
F000F0000000
F000F0000000
F000F0000000
F000F0000000
F000F0000000
F000F0000000
F000F0000000
F000F0000000
F000F0000000
F000F0000000
0F0F00000000
0F0F00000000
0F0F00000000
0F0F00000000
0F0F00000000
0F0F00000000
0F0F00000000
0F0F00000000
00F000000000
00F000000000
00F000000000
00F000000000
00F000000000
00F000000000
00F000000000
00F000000000
000000000000
000000000000
000000000000
000000000000
000000000000
000000000000
000000000000
000000000000
000000000000
000000000000
000000000000
000000000000
000000000000
000000000000
000000000000
000000000000
ENDCHAR
STARTCHAR uni0057
ENCODING 87
SWIDTH 4000 0
DWIDTH 176 0
BBX 44 60 0 -64
BITMAP
000000000000
000000000000
000000000000
000000000000
000000000000
000000000000
000000000000
000000000000
000000000000
000000000000
000000000000
000000000000
000000000000
000000000000
000000000000
000000000000
F00F00F00000
F00F00F00000
F00F00F00000
F00F00F00000
F00F00F00000
F00F00F00000
F00F00F00000
F00F00F00000
F00F00F00000
F00F00F00000
F00F00F00000
F00F00F00000
F0F0F0F00000
F0F0F0F00000
F0F0F0F00000
F0F0F0F00000
F0F0F0F00000
F0F0F0F00000
F0F0F0F00000
F0F0F0F00000
0F000F000000
0F000F000000
0F000F000000
0F000F000000
0F000F000000
0F000F000000
0F000F000000
0F000F000000
000000000000
000000000000
000000000000
000000000000
000000000000
000000000000
000000000000
000000000000
000000000000
000000000000
000000000000
000000000000
000000000000
000000000000
000000000000
000000000000
ENDCHAR
STARTCHAR uni0058
ENCODING 88
SWIDTH 4000 0
DWIDTH 176 0
BBX 44 60 0 -64
BITMAP
000000000000
000000000000
000000000000
000000000000
000000000000
000000000000
000000000000
000000000000
000000000000
000000000000
000000000000
000000000000
000000000000
000000000000
000000000000
000000000000
F000F0000000
F000F0000000
F000F0000000
F000F0000000
F000F0000000
F000F0000000
F000F0000000
F000F0000000
0F0F00000000
0F0F00000000
0F0F00000000
0F0F00000000
00F000000000
00F000000000
00F000000000
00F000000000
0F0F00000000
0F0F00000000
0F0F00000000
0F0F00000000
F000F0000000
F000F0000000
F000F0000000
F000F0000000
F000F0000000
F000F0000000
F000F0000000
F000F0000000
000000000000
000000000000
000000000000
000000000000
000000000000
000000000000
000000000000
000000000000
000000000000
000000000000
000000000000
000000000000
000000000000
000000000000
000000000000
000000000000
ENDCHAR
STARTCHAR uni0059
ENCODING 89
SWIDTH 4000 0
DWIDTH 176 0
BBX 44 60 0 -64
BITMAP
000000000000
000000000000
000000000000
000000000000
000000000000
000000000000
000000000000
000000000000
000000000000
000000000000
000000000000
000000000000
000000000000
000000000000
000000000000
000000000000
F000F0000000
F000F0000000
F000F0000000
F000F0000000
F000F0000000
F000F0000000
F000F0000000
F000F0000000
0F0F00000000
0F0F00000000
0F0F00000000
0F0F00000000
0F0F00000000
0F0F00000000
0F0F00000000
0F0F00000000
00F000000000
00F000000000
00F000000000
00F000000000
00F000000000
00F000000000
00F000000000
00F000000000
00F000000000
00F000000000
00F000000000
00F000000000
000000000000
000000000000
000000000000
000000000000
000000000000
000000000000
000000000000
000000000000
000000000000
000000000000
000000000000
000000000000
000000000000
000000000000
000000000000
000000000000
ENDCHAR
STARTCHAR uni005A
ENCODING 90
SWIDTH 4000 0
DWIDTH 176 0
BBX 44 60 0 -64
BITMAP
000000000000
000000000000
000000000000
000000000000
000000000000
000000000000
000000000000
000000000000
000000000000
000000000000
000000000000
000000000000
000000000000
000000000000
000000000000
000000000000
FFFFF0000000
FFFFF0000000
FFFFF0000000
FFFFF0000000
0000F0000000
0000F0000000
0000F0000000
0000F0000000
000F00000000
000F00000000
000F00000000
000F00000000
00F000000000
00F000000000
00F000000000
00F000000000
0F0000000000
0F0000000000
0F0000000000
0F0000000000
F00000000000
F00000000000
F00000000000
F00000000000
FFFFF0000000
FFFFF0000000
FFFFF0000000
FFFFF0000000
000000000000
000000000000
000000000000
000000000000
000000000000
000000000000
000000000000
000000000000
000000000000
000000000000
000000000000
000000000000
000000000000
000000000000
000000000000
000000000000
ENDCHAR
STARTCHAR uni005B
ENCODING 91
SWIDTH 4000 0
DWIDTH 176 0
BBX 44 60 0 -64
BITMAP
000000000000
000000000000
000000000000
000000000000
000000000000
000000000000
000000000000
000000000000
000000000000
000000000000
000000000000
000000000000
000000000000
000000000000
000000000000
000000000000
0FFF00000000
0FFF00000000
0FFF00000000
0FFF00000000
0F0000000000
0F0000000000
0F0000000000
0F0000000000
0F0000000000
0F0000000000
0F0000000000
0F0000000000
0F0000000000
0F0000000000
0F0000000000
0F0000000000
0F0000000000
0F0000000000
0F0000000000
0F0000000000
0F0000000000
0F0000000000
0F0000000000
0F0000000000
0F0000000000
0F0000000000
0F0000000000
0F0000000000
0F0000000000
0F0000000000
0F0000000000
0F0000000000
0FFF00000000
0FFF00000000
0FFF00000000
0FFF00000000
000000000000
000000000000
000000000000
000000000000
000000000000
000000000000
000000000000
000000000000
ENDCHAR
STARTCHAR uni005C
ENCODING 92
SWIDTH 4000 0
DWIDTH 176 0
BBX 44 60 0 -64
BITMAP
000000000000
000000000000
000000000000
000000000000
000000000000
000000000000
000000000000
000000000000
000000000000
000000000000
000000000000
000000000000
000000000000
000000000000
000000000000
000000000000
F00000000000
F00000000000
F00000000000
F00000000000
F00000000000
F00000000000
F00000000000
F00000000000
0F0000000000
0F0000000000
0F0000000000
0F0000000000
0F0000000000
0F0000000000
0F0000000000
0F0000000000
00F000000000
00F000000000
00F000000000
00F000000000
000F00000000
000F00000000
000F00000000
000F00000000
000F00000000
000F00000000
000F00000000
000F00000000
0000F0000000
0000F0000000
0000F0000000
0000F0000000
0000F0000000
0000F0000000
0000F0000000
0000F0000000
000000000000
000000000000
000000000000
000000000000
000000000000
000000000000
000000000000
000000000000
ENDCHAR
STARTCHAR uni005D
ENCODING 93
SWIDTH 4000 0
DWIDTH 176 0
BBX 44 60 0 -64
BITMAP
000000000000
000000000000
000000000000
000000000000
000000000000
000000000000
000000000000
000000000000
000000000000
000000000000
000000000000
000000000000
000000000000
000000000000
000000000000
000000000000
0FFF00000000
0FFF00000000
0FFF00000000
0FFF00000000
000F00000000
000F00000000
000F00000000
000F00000000
000F00000000
000F00000000
000F00000000
000F00000000
000F00000000
000F00000000
000F00000000
000F00000000
000F00000000
000F00000000
000F00000000
000F00000000
000F00000000
000F00000000
000F00000000
000F00000000
000F00000000
000F00000000
000F00000000
000F00000000
000F00000000
000F00000000
000F00000000
000F00000000
0FFF00000000
0FFF00000000
0FFF00000000
0FFF00000000
000000000000
000000000000
000000000000
000000000000
000000000000
000000000000
000000000000
000000000000
ENDCHAR
STARTCHAR uni005E
ENCODING 94
SWIDTH 4000 0
DWIDTH 176 0
BBX 44 60 0 -64
BITMAP
000000000000
000000000000
000000000000
000000000000
000000000000
000000000000
000000000000
000000000000
000000000000
000000000000
000000000000
000000000000
000000000000
000000000000
000000000000
000000000000
00F000000000
00F000000000
00F000000000
00F000000000
0F0F00000000
0F0F00000000
0F0F00000000
0F0F00000000
F000F0000000
F000F0000000
F000F0000000
F000F0000000
000000000000
000000000000
000000000000
000000000000
000000000000
000000000000
000000000000
000000000000
000000000000
000000000000
000000000000
000000000000
000000000000
000000000000
000000000000
000000000000
000000000000
000000000000
000000000000
000000000000
000000000000
000000000000
000000000000
000000000000
000000000000
000000000000
000000000000
000000000000
000000000000
000000000000
000000000000
000000000000
ENDCHAR
STARTCHAR uni005F
ENCODING 95
SWIDTH 4000 0
DWIDTH 176 0
BBX 44 60 0 -64
BITMAP
000000000000
000000000000
000000000000
000000000000
000000000000
000000000000
000000000000
000000000000
000000000000
000000000000
000000000000
000000000000
000000000000
000000000000
000000000000
000000000000
000000000000
000000000000
000000000000
000000000000
000000000000
000000000000
000000000000
000000000000
000000000000
000000000000
000000000000
000000000000
000000000000
000000000000
000000000000
000000000000
000000000000
000000000000
000000000000
000000000000
000000000000
000000000000
000000000000
000000000000
000000000000
000000000000
000000000000
000000000000
000000000000
000000000000
000000000000
000000000000
FFFFF0000000
FFFFF0000000
FFFFF0000000
FFFFF0000000
000000000000
000000000000
000000000000
000000000000
000000000000
000000000000
000000000000
000000000000
ENDCHAR
STARTCHAR uni0060
ENCODING 96
SWIDTH 4000 0
DWIDTH 176 0
BBX 44 60 0 -64
BITMAP
000000000000
000000000000
000000000000
000000000000
000000000000
000000000000
000000000000
000000000000
000000000000
000000000000
000000000000
000000000000
000000000000
000000000000
000000000000
000000000000
0F0000000000
0F0000000000
0F0000000000
0F0000000000
00F000000000
00F000000000
00F000000000
00F000000000
000000000000
000000000000
000000000000
000000000000
000000000000
000000000000
000000000000
000000000000
000000000000
000000000000
000000000000
000000000000
000000000000
000000000000
000000000000
000000000000
000000000000
000000000000
000000000000
000000000000
000000000000
000000000000
000000000000
000000000000
000000000000
000000000000
000000000000
000000000000
000000000000
000000000000
000000000000
000000000000
000000000000
000000000000
000000000000
000000000000
ENDCHAR
STARTCHAR uni0061
ENCODING 97
SWIDTH 4000 0
DWIDTH 176 0
BBX 44 60 0 -64
BITMAP
000000000000
000000000000
000000000000
000000000000
000000000000
000000000000
000000000000
000000000000
000000000000
000000000000
000000000000
000000000000
000000000000
000000000000
000000000000
000000000000
000000000000
000000000000
000000000000
000000000000
000000000000
000000000000
000000000000
000000000000
0FFF00000000
0FFF00000000
0FFF00000000
0FFF00000000
0000F0000000
0000F0000000
0000F0000000
0000F0000000
0FFFF0000000
0FFFF0000000
0FFFF0000000
0FFFF0000000
F000F0000000
F000F0000000
F000F0000000
F000F0000000
0FFFF0000000
0FFFF0000000
0FFFF0000000
0FFFF0000000
000000000000
000000000000
000000000000
000000000000
000000000000
000000000000
000000000000
000000000000
000000000000
000000000000
000000000000
000000000000
000000000000
000000000000
000000000000
000000000000
ENDCHAR
STARTCHAR uni0062
ENCODING 98
SWIDTH 4000 0
DWIDTH 176 0
BBX 44 60 0 -64
BITMAP
000000000000
000000000000
000000000000
000000000000
000000000000
000000000000
000000000000
000000000000
000000000000
000000000000
000000000000
000000000000
000000000000
000000000000
000000000000
000000000000
F00000000000
F00000000000
F00000000000
F00000000000
F00000000000
F00000000000
F00000000000
F00000000000
FFFF00000000
FFFF00000000
FFFF00000000
FFFF00000000
F000F0000000
F000F0000000
F000F0000000
F000F0000000
F000F0000000
F000F0000000
F000F0000000
F000F0000000
F000F0000000
F000F0000000
F000F0000000
F000F0000000
FFFF00000000
FFFF00000000
FFFF00000000
FFFF00000000
000000000000
000000000000
000000000000
000000000000
000000000000
000000000000
000000000000
000000000000
000000000000
000000000000
000000000000
000000000000
000000000000
000000000000
000000000000
000000000000
ENDCHAR
STARTCHAR uni0063
ENCODING 99
SWIDTH 4000 0
DWIDTH 176 0
BBX 44 60 0 -64
BITMAP
000000000000
000000000000
000000000000
000000000000
000000000000
000000000000
000000000000
000000000000
000000000000
000000000000
000000000000
000000000000
000000000000
000000000000
000000000000
000000000000
000000000000
000000000000
000000000000
000000000000
000000000000
000000000000
000000000000
000000000000
0FFF00000000
0FFF00000000
0FFF00000000
0FFF00000000
F000F0000000
F000F0000000
F000F0000000
F000F0000000
F00000000000
F00000000000
F00000000000
F00000000000
F000F0000000
F000F0000000
F000F0000000
F000F0000000
0FFF00000000
0FFF00000000
0FFF00000000
0FFF00000000
000000000000
000000000000
000000000000
000000000000
000000000000
000000000000
000000000000
000000000000
000000000000
000000000000
000000000000
000000000000
000000000000
000000000000
000000000000
000000000000
ENDCHAR
STARTCHAR uni0064
ENCODING 100
SWIDTH 4000 0
DWIDTH 176 0
BBX 44 60 0 -64
BITMAP
000000000000
000000000000
000000000000
000000000000
000000000000
000000000000
000000000000
000000000000
000000000000
000000000000
000000000000
000000000000
000000000000
000000000000
000000000000
000000000000
0000F0000000
0000F0000000
0000F0000000
0000F0000000
0000F0000000
0000F0000000
0000F0000000
0000F0000000
0FFFF0000000
0FFFF0000000
0FFFF0000000
0FFFF0000000
F000F0000000
F000F0000000
F000F0000000
F000F0000000
F000F0000000
F000F0000000
F000F0000000
F000F0000000
F000F0000000
F000F0000000
F000F0000000
F000F0000000
0FFFF0000000
0FFFF0000000
0FFFF0000000
0FFFF0000000
000000000000
000000000000
000000000000
000000000000
000000000000
000000000000
000000000000
000000000000
000000000000
000000000000
000000000000
000000000000
000000000000
000000000000
000000000000
000000000000
ENDCHAR
STARTCHAR uni0065
ENCODING 101
SWIDTH 4000 0
DWIDTH 176 0
BBX 44 60 0 -64
BITMAP
000000000000
000000000000
000000000000
000000000000
000000000000
000000000000
000000000000
000000000000
000000000000
000000000000
000000000000
000000000000
000000000000
000000000000
000000000000
000000000000
000000000000
000000000000
000000000000
000000000000
000000000000
000000000000
000000000000
000000000000
0FFF00000000
0FFF00000000
0FFF00000000
0FFF00000000
F000F0000000
F000F0000000
F000F0000000
F000F0000000
FFFFF0000000
FFFFF0000000
FFFFF0000000
FFFFF0000000
F00000000000
F00000000000
F00000000000
F00000000000
0FFF00000000
0FFF00000000
0FFF00000000
0FFF00000000
000000000000
000000000000
000000000000
000000000000
000000000000
000000000000
000000000000
000000000000
000000000000
000000000000
000000000000
000000000000
000000000000
000000000000
000000000000
000000000000
ENDCHAR
STARTCHAR uni0066
ENCODING 102
SWIDTH 4000 0
DWIDTH 176 0
BBX 44 60 0 -64
BITMAP
000000000000
000000000000
000000000000
000000000000
000000000000
000000000000
000000000000
000000000000
000000000000
000000000000
000000000000
000000000000
000000000000
000000000000
000000000000
000000000000
00FF00000000
00FF00000000
00FF00000000
00FF00000000
0F0000000000
0F0000000000
0F0000000000
0F0000000000
FFFF00000000
FFFF00000000
FFFF00000000
FFFF00000000
0F0000000000
0F0000000000
0F0000000000
0F0000000000
0F0000000000
0F0000000000
0F0000000000
0F0000000000
0F0000000000
0F0000000000
0F0000000000
0F0000000000
0F0000000000
0F0000000000
0F0000000000
0F0000000000
000000000000
000000000000
000000000000
000000000000
000000000000
000000000000
000000000000
000000000000
000000000000
000000000000
000000000000
000000000000
000000000000
000000000000
000000000000
000000000000
ENDCHAR
STARTCHAR uni0067
ENCODING 103
SWIDTH 4000 0
DWIDTH 176 0
BBX 44 60 0 -64
BITMAP
000000000000
000000000000
000000000000
000000000000
000000000000
000000000000
000000000000
000000000000
000000000000
000000000000
000000000000
000000000000
000000000000
000000000000
000000000000
000000000000
000000000000
000000000000
000000000000
000000000000
000000000000
000000000000
000000000000
000000000000
0FFFF0000000
0FFFF0000000
0FFFF0000000
0FFFF0000000
F000F0000000
F000F0000000
F000F0000000
F000F0000000
F000F0000000
F000F0000000
F000F0000000
F000F0000000
F000F0000000
F000F0000000
F000F0000000
F000F0000000
0FFFF0000000
0FFFF0000000
0FFFF0000000
0FFFF0000000
0000F0000000
0000F0000000
0000F0000000
0000F0000000
0FFF00000000
0FFF00000000
0FFF00000000
0FFF00000000
000000000000
000000000000
000000000000
000000000000
000000000000
000000000000
000000000000
000000000000
ENDCHAR
STARTCHAR uni0068
ENCODING 104
SWIDTH 4000 0
DWIDTH 176 0
BBX 44 60 0 -64
BITMAP
000000000000
000000000000
000000000000
000000000000
000000000000
000000000000
000000000000
000000000000
000000000000
000000000000
000000000000
000000000000
000000000000
000000000000
000000000000
000000000000
F00000000000
F00000000000
F00000000000
F00000000000
F00000000000
F00000000000
F00000000000
F00000000000
FFFF00000000
FFFF00000000
FFFF00000000
FFFF00000000
F000F0000000
F000F0000000
F000F0000000
F000F0000000
F000F0000000
F000F0000000
F000F0000000
F000F0000000
F000F0000000
F000F0000000
F000F0000000
F000F0000000
F000F0000000
F000F0000000
F000F0000000
F000F0000000
000000000000
000000000000
000000000000
000000000000
000000000000
000000000000
000000000000
000000000000
000000000000
000000000000
000000000000
000000000000
000000000000
000000000000
000000000000
000000000000
ENDCHAR
STARTCHAR uni0069
ENCODING 105
SWIDTH 4000 0
DWIDTH 176 0
BBX 44 60 0 -64
BITMAP
000000000000
000000000000
000000000000
000000000000
000000000000
000000000000
000000000000
000000000000
000000000000
000000000000
000000000000
000000000000
000000000000
000000000000
000000000000
000000000000
0F0000000000
0F0000000000
0F0000000000
0F0000000000
000000000000
000000000000
000000000000
000000000000
FF0000000000
FF0000000000
FF0000000000
FF0000000000
0F0000000000
0F0000000000
0F0000000000
0F0000000000
0F0000000000
0F0000000000
0F0000000000
0F0000000000
0F0000000000
0F0000000000
0F0000000000
0F0000000000
FFF000000000
FFF000000000
FFF000000000
FFF000000000
000000000000
000000000000
000000000000
000000000000
000000000000
000000000000
000000000000
000000000000
000000000000
000000000000
000000000000
000000000000
000000000000
000000000000
000000000000
000000000000
ENDCHAR
STARTCHAR uni006A
ENCODING 106
SWIDTH 4000 0
DWIDTH 176 0
BBX 44 60 0 -64
BITMAP
000000000000
000000000000
000000000000
000000000000
000000000000
000000000000
000000000000
000000000000
000000000000
000000000000
000000000000
000000000000
000000000000
000000000000
000000000000
000000000000
00F000000000
00F000000000
00F000000000
00F000000000
000000000000
000000000000
000000000000
000000000000
FFF000000000
FFF000000000
FFF000000000
FFF000000000
00F000000000
00F000000000
00F000000000
00F000000000
00F000000000
00F000000000
00F000000000
00F000000000
00F000000000
00F000000000
00F000000000
00F000000000
00F000000000
00F000000000
00F000000000
00F000000000
00F000000000
00F000000000
00F000000000
00F000000000
FF0000000000
FF0000000000
FF0000000000
FF0000000000
000000000000
000000000000
000000000000
000000000000
000000000000
000000000000
000000000000
000000000000
ENDCHAR
STARTCHAR uni006B
ENCODING 107
SWIDTH 4000 0
DWIDTH 176 0
BBX 44 60 0 -64
BITMAP
000000000000
000000000000
000000000000
000000000000
000000000000
000000000000
000000000000
000000000000
000000000000
000000000000
000000000000
000000000000
000000000000
000000000000
000000000000
000000000000
F00000000000
F00000000000
F00000000000
F00000000000
F00000000000
F00000000000
F00000000000
F00000000000
F000F0000000
F000F0000000
F000F0000000
F000F0000000
F00F00000000
F00F00000000
F00F00000000
F00F00000000
FFF000000000
FFF000000000
FFF000000000
FFF000000000
F00F00000000
F00F00000000
F00F00000000
F00F00000000
F000F0000000
F000F0000000
F000F0000000
F000F0000000
000000000000
000000000000
000000000000
000000000000
000000000000
000000000000
000000000000
000000000000
000000000000
000000000000
000000000000
000000000000
000000000000
000000000000
000000000000
000000000000
ENDCHAR
STARTCHAR uni006C
ENCODING 108
SWIDTH 4000 0
DWIDTH 176 0
BBX 44 60 0 -64
BITMAP
000000000000
000000000000
000000000000
000000000000
000000000000
000000000000
000000000000
000000000000
000000000000
000000000000
000000000000
000000000000
000000000000
000000000000
000000000000
000000000000
FF0000000000
FF0000000000
FF0000000000
FF0000000000
0F0000000000
0F0000000000
0F0000000000
0F0000000000
0F0000000000
0F0000000000
0F0000000000
0F0000000000
0F0000000000
0F0000000000
0F0000000000
0F0000000000
0F0000000000
0F0000000000
0F0000000000
0F0000000000
0F0000000000
0F0000000000
0F0000000000
0F0000000000
0FF000000000
0FF000000000
0FF000000000
0FF000000000
000000000000
000000000000
000000000000
000000000000
000000000000
000000000000
000000000000
000000000000
000000000000
000000000000
000000000000
000000000000
000000000000
000000000000
000000000000
000000000000
ENDCHAR
STARTCHAR uni006D
ENCODING 109
SWIDTH 4000 0
DWIDTH 176 0
BBX 44 60 0 -64
BITMAP
000000000000
000000000000
000000000000
000000000000
000000000000
000000000000
000000000000
000000000000
000000000000
000000000000
000000000000
000000000000
000000000000
000000000000
000000000000
000000000000
000000000000
000000000000
000000000000
000000000000
000000000000
000000000000
000000000000
000000000000
FFF0FF000000
FFF0FF000000
FFF0FF000000
FFF0FF000000
F00F00F00000
F00F00F00000
F00F00F00000
F00F00F00000
F00F00F00000
F00F00F00000
F00F00F00000
F00F00F00000
F00F00F00000
F00F00F00000
F00F00F00000
F00F00F00000
F00F00F00000
F00F00F00000
F00F00F00000
F00F00F00000
000000000000
000000000000
000000000000
000000000000
000000000000
000000000000
000000000000
000000000000
000000000000
000000000000
000000000000
000000000000
000000000000
000000000000
000000000000
000000000000
ENDCHAR
STARTCHAR uni006E
ENCODING 110
SWIDTH 4000 0
DWIDTH 176 0
BBX 44 60 0 -64
BITMAP
000000000000
000000000000
000000000000
000000000000
000000000000
000000000000
000000000000
000000000000
000000000000
000000000000
000000000000
000000000000
000000000000
000000000000
000000000000
000000000000
000000000000
000000000000
000000000000
000000000000
000000000000
000000000000
000000000000
000000000000
FFFF00000000
FFFF00000000
FFFF00000000
FFFF00000000
F000F0000000
F000F0000000
F000F0000000
F000F0000000
F000F0000000
F000F0000000
F000F0000000
F000F0000000
F000F0000000
F000F0000000
F000F0000000
F000F0000000
F000F0000000
F000F0000000
F000F0000000
F000F0000000
000000000000
000000000000
000000000000
000000000000
000000000000
000000000000
000000000000
000000000000
000000000000
000000000000
000000000000
000000000000
000000000000
000000000000
000000000000
000000000000
ENDCHAR
STARTCHAR uni006F
ENCODING 111
SWIDTH 4000 0
DWIDTH 176 0
BBX 44 60 0 -64
BITMAP
000000000000
000000000000
000000000000
000000000000
000000000000
000000000000
000000000000
000000000000
000000000000
000000000000
000000000000
000000000000
000000000000
000000000000
000000000000
000000000000
000000000000
000000000000
000000000000
000000000000
000000000000
000000000000
000000000000
000000000000
0FFF00000000
0FFF00000000
0FFF00000000
0FFF00000000
F000F0000000
F000F0000000
F000F0000000
F000F0000000
F000F0000000
F000F0000000
F000F0000000
F000F0000000
F000F0000000
F000F0000000
F000F0000000
F000F0000000
0FFF00000000
0FFF00000000
0FFF00000000
0FFF00000000
000000000000
000000000000
000000000000
000000000000
000000000000
000000000000
000000000000
000000000000
000000000000
000000000000
000000000000
000000000000
000000000000
000000000000
000000000000
000000000000
ENDCHAR
STARTCHAR uni0070
ENCODING 112
SWIDTH 4000 0
DWIDTH 176 0
BBX 44 60 0 -64
BITMAP
000000000000
000000000000
000000000000
000000000000
000000000000
000000000000
000000000000
000000000000
000000000000
000000000000
000000000000
000000000000
000000000000
000000000000
000000000000
000000000000
000000000000
000000000000
000000000000
000000000000
000000000000
000000000000
000000000000
000000000000
FFFF00000000
FFFF00000000
FFFF00000000
FFFF00000000
F000F0000000
F000F0000000
F000F0000000
F000F0000000
F000F0000000
F000F0000000
F000F0000000
F000F0000000
F000F0000000
F000F0000000
F000F0000000
F000F0000000
FFFF00000000
FFFF00000000
FFFF00000000
FFFF00000000
F00000000000
F00000000000
F00000000000
F00000000000
F00000000000
F00000000000
F00000000000
F00000000000
000000000000
000000000000
000000000000
000000000000
000000000000
000000000000
000000000000
000000000000
ENDCHAR
STARTCHAR uni0071
ENCODING 113
SWIDTH 4000 0
DWIDTH 176 0
BBX 44 60 0 -64
BITMAP
000000000000
000000000000
000000000000
000000000000
000000000000
000000000000
000000000000
000000000000
000000000000
000000000000
000000000000
000000000000
000000000000
000000000000
000000000000
000000000000
000000000000
000000000000
000000000000
000000000000
000000000000
000000000000
000000000000
000000000000
0FFFF0000000
0FFFF0000000
0FFFF0000000
0FFFF0000000
F000F0000000
F000F0000000
F000F0000000
F000F0000000
F000F0000000
F000F0000000
F000F0000000
F000F0000000
F000F0000000
F000F0000000
F000F0000000
F000F0000000
0FFFF0000000
0FFFF0000000
0FFFF0000000
0FFFF0000000
0000F0000000
0000F0000000
0000F0000000
0000F0000000
0000F0000000
0000F0000000
0000F0000000
0000F0000000
000000000000
000000000000
000000000000
000000000000
000000000000
000000000000
000000000000
000000000000
ENDCHAR
STARTCHAR uni0072
ENCODING 114
SWIDTH 4000 0
DWIDTH 176 0
BBX 44 60 0 -64
BITMAP
000000000000
000000000000
000000000000
000000000000
000000000000
000000000000
000000000000
000000000000
000000000000
000000000000
000000000000
000000000000
000000000000
000000000000
000000000000
000000000000
000000000000
000000000000
000000000000
000000000000
000000000000
000000000000
000000000000
000000000000
F0FF00000000
F0FF00000000
F0FF00000000
F0FF00000000
FF0000000000
FF0000000000
FF0000000000
FF0000000000
F00000000000
F00000000000
F00000000000
F00000000000
F00000000000
F00000000000
F00000000000
F00000000000
F00000000000
F00000000000
F00000000000
F00000000000
000000000000
000000000000
000000000000
000000000000
000000000000
000000000000
000000000000
000000000000
000000000000
000000000000
000000000000
000000000000
000000000000
000000000000
000000000000
000000000000
ENDCHAR
STARTCHAR uni0073
ENCODING 115
SWIDTH 4000 0
DWIDTH 176 0
BBX 44 60 0 -64
BITMAP
000000000000
000000000000
000000000000
000000000000
000000000000
000000000000
000000000000
000000000000
000000000000
000000000000
000000000000
000000000000
000000000000
000000000000
000000000000
000000000000
000000000000
000000000000
000000000000
000000000000
000000000000
000000000000
000000000000
000000000000
0FFFF0000000
0FFFF0000000
0FFFF0000000
0FFFF0000000
F00000000000
F00000000000
F00000000000
F00000000000
0FFF00000000
0FFF00000000
0FFF00000000
0FFF00000000
0000F0000000
0000F0000000
0000F0000000
0000F0000000
FFFF00000000
FFFF00000000
FFFF00000000
FFFF00000000
000000000000
000000000000
000000000000
000000000000
000000000000
000000000000
000000000000
000000000000
000000000000
000000000000
000000000000
000000000000
000000000000
000000000000
000000000000
000000000000
ENDCHAR
STARTCHAR uni0074
ENCODING 116
SWIDTH 4000 0
DWIDTH 176 0
BBX 44 60 0 -64
BITMAP
000000000000
000000000000
000000000000
000000000000
000000000000
000000000000
000000000000
000000000000
000000000000
000000000000
000000000000
000000000000
000000000000
000000000000
000000000000
000000000000
0F0000000000
0F0000000000
0F0000000000
0F0000000000
0F0000000000
0F0000000000
0F0000000000
0F0000000000
FFFF00000000
FFFF00000000
FFFF00000000
FFFF00000000
0F0000000000
0F0000000000
0F0000000000
0F0000000000
0F0000000000
0F0000000000
0F0000000000
0F0000000000
0F0000000000
0F0000000000
0F0000000000
0F0000000000
00FF00000000
00FF00000000
00FF00000000
00FF00000000
000000000000
000000000000
000000000000
000000000000
000000000000
000000000000
000000000000
000000000000
000000000000
000000000000
000000000000
000000000000
000000000000
000000000000
000000000000
000000000000
ENDCHAR
STARTCHAR uni0075
ENCODING 117
SWIDTH 4000 0
DWIDTH 176 0
BBX 44 60 0 -64
BITMAP
000000000000
000000000000
000000000000
000000000000
000000000000
000000000000
000000000000
000000000000
000000000000
000000000000
000000000000
000000000000
000000000000
000000000000
000000000000
000000000000
000000000000
000000000000
000000000000
000000000000
000000000000
000000000000
000000000000
000000000000
F000F0000000
F000F0000000
F000F0000000
F000F0000000
F000F0000000
F000F0000000
F000F0000000
F000F0000000
F000F0000000
F000F0000000
F000F0000000
F000F0000000
F000F0000000
F000F0000000
F000F0000000
F000F0000000
0FFFF0000000
0FFFF0000000
0FFFF0000000
0FFFF0000000
000000000000
000000000000
000000000000
000000000000
000000000000
000000000000
000000000000
000000000000
000000000000
000000000000
000000000000
000000000000
000000000000
000000000000
000000000000
000000000000
ENDCHAR
STARTCHAR uni0076
ENCODING 118
SWIDTH 4000 0
DWIDTH 176 0
BBX 44 60 0 -64
BITMAP
000000000000
000000000000
000000000000
000000000000
000000000000
000000000000
000000000000
000000000000
000000000000
000000000000
000000000000
000000000000
000000000000
000000000000
000000000000
000000000000
000000000000
000000000000
000000000000
000000000000
000000000000
000000000000
000000000000
000000000000
F000F0000000
F000F0000000
F000F0000000
F000F0000000
F000F0000000
F000F0000000
F000F0000000
F000F0000000
0F0F00000000
0F0F00000000
0F0F00000000
0F0F00000000
0F0F00000000
0F0F00000000
0F0F00000000
0F0F00000000
00F000000000
00F000000000
00F000000000
00F000000000
000000000000
000000000000
000000000000
000000000000
000000000000
000000000000
000000000000
000000000000
000000000000
000000000000
000000000000
000000000000
000000000000
000000000000
000000000000
000000000000
ENDCHAR
STARTCHAR uni0077
ENCODING 119
SWIDTH 4000 0
DWIDTH 176 0
BBX 44 60 0 -64
BITMAP
000000000000
000000000000
000000000000
000000000000
000000000000
000000000000
000000000000
000000000000
000000000000
000000000000
000000000000
000000000000
000000000000
000000000000
000000000000
000000000000
000000000000
000000000000
000000000000
000000000000
000000000000
000000000000
000000000000
000000000000
F00F00F00000
F00F00F00000
F00F00F00000
F00F00F00000
F00F00F00000
F00F00F00000
F00F00F00000
F00F00F00000
F0F0F0F00000
F0F0F0F00000
F0F0F0F00000
F0F0F0F00000
0F000F000000
0F000F000000
0F000F000000
0F000F000000
0F000F000000
0F000F000000
0F000F000000
0F000F000000
000000000000
000000000000
000000000000
000000000000
000000000000
000000000000
000000000000
000000000000
000000000000
000000000000
000000000000
000000000000
000000000000
000000000000
000000000000
000000000000
ENDCHAR
STARTCHAR uni0078
ENCODING 120
SWIDTH 4000 0
DWIDTH 176 0
BBX 44 60 0 -64
BITMAP
000000000000
000000000000
000000000000
000000000000
000000000000
000000000000
000000000000
000000000000
000000000000
000000000000
000000000000
000000000000
000000000000
000000000000
000000000000
000000000000
000000000000
000000000000
000000000000
000000000000
000000000000
000000000000
000000000000
000000000000
F000F0000000
F000F0000000
F000F0000000
F000F0000000
0F0F00000000
0F0F00000000
0F0F00000000
0F0F00000000
00F000000000
00F000000000
00F000000000
00F000000000
0F0F00000000
0F0F00000000
0F0F00000000
0F0F00000000
F000F0000000
F000F0000000
F000F0000000
F000F0000000
000000000000
000000000000
000000000000
000000000000
000000000000
000000000000
000000000000
000000000000
000000000000
000000000000
000000000000
000000000000
000000000000
000000000000
000000000000
000000000000
ENDCHAR
STARTCHAR uni0079
ENCODING 121
SWIDTH 4000 0
DWIDTH 176 0
BBX 44 60 0 -64
BITMAP
000000000000
000000000000
000000000000
000000000000
000000000000
000000000000
000000000000
000000000000
000000000000
000000000000
000000000000
000000000000
000000000000
000000000000
000000000000
000000000000
000000000000
000000000000
000000000000
000000000000
000000000000
000000000000
000000000000
000000000000
F000F0000000
F000F0000000
F000F0000000
F000F0000000
F000F0000000
F000F0000000
F000F0000000
F000F0000000
F000F0000000
F000F0000000
F000F0000000
F000F0000000
F000F0000000
F000F0000000
F000F0000000
F000F0000000
0FFFF0000000
0FFFF0000000
0FFFF0000000
0FFFF0000000
0000F0000000
0000F0000000
0000F0000000
0000F0000000
0FFF00000000
0FFF00000000
0FFF00000000
0FFF00000000
000000000000
000000000000
000000000000
000000000000
000000000000
000000000000
000000000000
000000000000
ENDCHAR
STARTCHAR uni007A
ENCODING 122
SWIDTH 4000 0
DWIDTH 176 0
BBX 44 60 0 -64
BITMAP
000000000000
000000000000
000000000000
000000000000
000000000000
000000000000
000000000000
000000000000
000000000000
000000000000
000000000000
000000000000
000000000000
000000000000
000000000000
000000000000
000000000000
000000000000
000000000000
000000000000
000000000000
000000000000
000000000000
000000000000
FFFFF0000000
FFFFF0000000
FFFFF0000000
FFFFF0000000
000F00000000
000F00000000
000F00000000
000F00000000
00F000000000
00F000000000
00F000000000
00F000000000
0F0000000000
0F0000000000
0F0000000000
0F0000000000
FFFFF0000000
FFFFF0000000
FFFFF0000000
FFFFF0000000
000000000000
000000000000
000000000000
000000000000
000000000000
000000000000
000000000000
000000000000
000000000000
000000000000
000000000000
000000000000
000000000000
000000000000
000000000000
000000000000
ENDCHAR
STARTCHAR uni007B
ENCODING 123
SWIDTH 4000 0
DWIDTH 176 0
BBX 44 60 0 -64
BITMAP
000000000000
000000000000
000000000000
000000000000
000000000000
000000000000
000000000000
000000000000
000000000000
000000000000
000000000000
000000000000
000000000000
000000000000
000000000000
000000000000
000FF0000000
000FF0000000
000FF0000000
000FF0000000
00F000000000
00F000000000
00F000000000
00F000000000
00F000000000
00F000000000
00F000000000
00F000000000
00F000000000
00F000000000
00F000000000
00F000000000
0F0000000000
0F0000000000
0F0000000000
0F0000000000
00F000000000
00F000000000
00F000000000
00F000000000
00F000000000
00F000000000
00F000000000
00F000000000
00F000000000
00F000000000
00F000000000
00F000000000
000FF0000000
000FF0000000
000FF0000000
000FF0000000
000000000000
000000000000
000000000000
000000000000
000000000000
000000000000
000000000000
000000000000
ENDCHAR
STARTCHAR uni007C
ENCODING 124
SWIDTH 4000 0
DWIDTH 176 0
BBX 44 60 0 -64
BITMAP
000000000000
000000000000
000000000000
000000000000
000000000000
000000000000
000000000000
000000000000
000000000000
000000000000
000000000000
000000000000
000000000000
000000000000
000000000000
000000000000
0F0000000000
0F0000000000
0F0000000000
0F0000000000
0F0000000000
0F0000000000
0F0000000000
0F0000000000
0F0000000000
0F0000000000
0F0000000000
0F0000000000
0F0000000000
0F0000000000
0F0000000000
0F0000000000
0F0000000000
0F0000000000
0F0000000000
0F0000000000
0F0000000000
0F0000000000
0F0000000000
0F0000000000
0F0000000000
0F0000000000
0F0000000000
0F0000000000
0F0000000000
0F0000000000
0F0000000000
0F0000000000
0F0000000000
0F0000000000
0F0000000000
0F0000000000
000000000000
000000000000
000000000000
000000000000
000000000000
000000000000
000000000000
000000000000
ENDCHAR
STARTCHAR uni007D
ENCODING 125
SWIDTH 4000 0
DWIDTH 176 0
BBX 44 60 0 -64
BITMAP
000000000000
000000000000
000000000000
000000000000
000000000000
000000000000
000000000000
000000000000
000000000000
000000000000
000000000000
000000000000
000000000000
000000000000
000000000000
000000000000
0FF000000000
0FF000000000
0FF000000000
0FF000000000
000F00000000
000F00000000
000F00000000
000F00000000
000F00000000
000F00000000
000F00000000
000F00000000
000F00000000
000F00000000
000F00000000
000F00000000
0000F0000000
0000F0000000
0000F0000000
0000F0000000
000F00000000
000F00000000
000F00000000
000F00000000
000F00000000
000F00000000
000F00000000
000F00000000
000F00000000
000F00000000
000F00000000
000F00000000
0FF000000000
0FF000000000
0FF000000000
0FF000000000
000000000000
000000000000
000000000000
000000000000
000000000000
000000000000
000000000000
000000000000
ENDCHAR
STARTCHAR uni007E
ENCODING 126
SWIDTH 4000 0
DWIDTH 176 0
BBX 44 60 0 -64
BITMAP
000000000000
000000000000
000000000000
000000000000
000000000000
000000000000
000000000000
000000000000
000000000000
000000000000
000000000000
000000000000
000000000000
000000000000
000000000000
000000000000
000000000000
000000000000
000000000000
000000000000
000000000000
000000000000
000000000000
000000000000
0F0000000000
0F0000000000
0F0000000000
0F0000000000
F0F0F0000000
F0F0F0000000
F0F0F0000000
F0F0F0000000
000F00000000
000F00000000
000F00000000
000F00000000
000000000000
000000000000
000000000000
000000000000
000000000000
000000000000
000000000000
000000000000
000000000000
000000000000
000000000000
000000000000
000000000000
000000000000
000000000000
000000000000
000000000000
000000000000
000000000000
000000000000
000000000000
000000000000
000000000000
000000000000
ENDCHAR
STARTCHAR .notdef
ENCODING 65534
SWIDTH 4000 0
DWIDTH 176 0
BBX 44 60 0 -64
BITMAP
000000000000
000000000000
000000000000
000000000000
000000000000
000000000000
000000000000
000000000000
FFFFF0000000
FFFFF0000000
FFFFF0000000
FFFFF0000000
F000F0000000
F000F0000000
F000F0000000
F000F0000000
F000F0000000
F000F0000000
F000F0000000
F000F0000000
F000F0000000
F000F0000000
F000F0000000
F000F0000000
F000F0000000
F000F0000000
F000F0000000
F000F0000000
F000F0000000
F000F0000000
F000F0000000
F000F0000000
F000F0000000
F000F0000000
F000F0000000
F000F0000000
F000F0000000
F000F0000000
F000F0000000
F000F0000000
F000F0000000
F000F0000000
F000F0000000
F000F0000000
F000F0000000
F000F0000000
F000F0000000
F000F0000000
FFFFF0000000
FFFFF0000000
FFFFF0000000
FFFFF0000000
000000000000
000000000000
000000000000
000000000000
000000000000
000000000000
000000000000
000000000000
ENDCHAR
ENDFONT
